<svg width="15" height="14" viewBox="0 0 15 14" fill="none" xmlns="http://www.w3.org/2000/svg">
<path d="M1.27778 6.22222H5.94444C6.15072 6.22222 6.34855 6.14028 6.49442 5.99442C6.64028 5.84855 6.72222 5.65072 6.72222 5.44444V0.777778C6.72222 0.571498 6.64028 0.373667 6.49442 0.227806C6.34855 0.0819442 6.15072 0 5.94444 0H1.27778C1.0715 0 0.873667 0.0819442 0.727806 0.227806C0.581944 0.373667 0.5 0.571498 0.5 0.777778V5.44444C0.5 5.65072 0.581944 5.84855 0.727806 5.99442C0.873667 6.14028 1.0715 6.22222 1.27778 6.22222ZM9.05556 6.22222H13.7222C13.9285 6.22222 14.1263 6.14028 14.2722 5.99442C14.4181 5.84855 14.5 5.65072 14.5 5.44444V0.777778C14.5 0.571498 14.4181 0.373667 14.2722 0.227806C14.1263 0.0819442 13.9285 0 13.7222 0H9.05556C8.84928 0 8.65145 0.0819442 8.50558 0.227806C8.35972 0.373667 8.27778 0.571498 8.27778 0.777778V5.44444C8.27778 5.65072 8.35972 5.84855 8.50558 5.99442C8.65145 6.14028 8.84928 6.22222 9.05556 6.22222ZM1.27778 14H5.94444C6.15072 14 6.34855 13.9181 6.49442 13.7722C6.64028 13.6263 6.72222 13.4285 6.72222 13.2222V8.55556C6.72222 8.34928 6.64028 8.15145 6.49442 8.00558C6.34855 7.85972 6.15072 7.77778 5.94444 7.77778H1.27778C1.0715 7.77778 0.873667 7.85972 0.727806 8.00558C0.581944 8.15145 0.5 8.34928 0.5 8.55556V13.2222C0.5 13.4285 0.581944 13.6263 0.727806 13.7722C0.873667 13.9181 1.0715 14 1.27778 14ZM11.3889 14C13.1047 14 14.5 12.6047 14.5 10.8889C14.5 9.17311 13.1047 7.77778 11.3889 7.77778C9.67311 7.77778 8.27778 9.17311 8.27778 10.8889C8.27778 12.6047 9.67311 14 11.3889 14Z" fill="white"/>
</svg>
