<svg width="24" height="24" viewBox="0 0 24 24" fill="none" xmlns="http://www.w3.org/2000/svg">
<path d="M0.432707 3.19203C-0.980444 1.36561 1.36562 -0.98044 3.19204 0.432712L10.7963 6.31636C11.5051 6.86474 12.4949 6.86474 13.2037 6.31636L20.808 0.432707C22.6344 -0.980445 24.9804 1.36562 23.5673 3.19204L17.6836 10.7963C17.1353 11.5051 17.1353 12.4949 17.6836 13.2037L23.5673 20.808C24.9804 22.6344 22.6344 24.9804 20.808 23.5673L13.2037 17.6836C12.4949 17.1353 11.5051 17.1353 10.7963 17.6836L3.19203 23.5673C1.36561 24.9804 -0.980439 22.6344 0.432712 20.808L6.31636 13.2037C6.86474 12.4949 6.86474 11.5051 6.31636 10.7963L0.432707 3.19203Z" fill="white"/>
</svg>
