<svg width="18" height="16" viewBox="0 0 18 16" fill="none" xmlns="http://www.w3.org/2000/svg">
<path d="M2.88632 7.81384C2.55335 7.46564 2.28955 7.05116 2.11027 6.59455C1.931 6.13794 1.83984 5.64834 1.84211 5.15427C1.84211 4.155 2.21917 3.19667 2.89035 2.49008C3.56154 1.7835 4.47186 1.38654 5.42105 1.38654C6.75158 1.38654 7.91368 2.14895 8.52842 3.2837H9.47158C9.7841 2.70662 10.2363 2.22704 10.7821 1.89379C11.328 1.56053 11.948 1.38551 12.5789 1.38654C13.5281 1.38654 14.4385 1.7835 15.1096 2.49008C15.7808 3.19667 16.1579 4.155 16.1579 5.15427C16.1579 6.1915 15.7368 7.14895 15.1137 7.81384L9 14.2411L2.88632 7.81384ZM15.7032 8.44327C16.5032 7.59221 17 6.43973 17 5.15427C17 3.91988 16.5342 2.73606 15.7051 1.86321C14.876 0.990373 13.7515 0.500016 12.5789 0.500016C11.1053 0.500016 9.8 1.25356 9 2.42377C8.59166 1.8267 8.05398 1.34072 7.43156 1.00616C6.80914 0.671593 6.11991 0.498081 5.42105 0.500016C4.24852 0.500016 3.124 0.990373 2.2949 1.86321C1.46579 2.73606 1 3.91988 1 5.15427C1 6.43973 1.49684 7.59221 2.29684 8.44327L9 15.5L15.7032 8.44327Z" fill="white" stroke="white" stroke-width="0.5"/>
</svg>
