<svg width="24" height="21" viewBox="0 0 24 21" fill="none" xmlns="http://www.w3.org/2000/svg">
<rect x="0.5" y="0.5" width="23" height="20" rx="6.5" stroke="#ADFF00"/>
<path d="M7.79684 10.3635C7.56793 10.1081 7.38656 9.80418 7.26331 9.46934C7.14006 9.13449 7.07739 8.77545 7.07895 8.41313C7.07895 7.68034 7.33818 6.97756 7.79962 6.45939C8.26106 5.94123 8.8869 5.65013 9.53947 5.65013C10.4542 5.65013 11.2532 6.20923 11.6758 7.04138H12.3242C12.5391 6.61819 12.85 6.2665 13.2252 6.02211C13.6005 5.77772 14.0267 5.64937 14.4605 5.65013C15.1131 5.65013 15.7389 5.94123 16.2004 6.45939C16.6618 6.97756 16.9211 7.68034 16.9211 8.41313C16.9211 9.17377 16.6316 9.87589 16.2032 10.3635L12 15.0768L7.79684 10.3635ZM16.6084 10.8251C17.1584 10.201 17.5 9.3558 17.5 8.41313C17.5 7.50791 17.1798 6.63977 16.6098 5.99969C16.0397 5.35961 15.2666 5.00001 14.4605 5.00001C13.4474 5.00001 12.55 5.55261 12 6.41077C11.7193 5.97291 11.3496 5.61653 10.9217 5.37118C10.4938 5.12583 10.0199 4.99859 9.53947 5.00001C8.73336 5.00001 7.96025 5.35961 7.39024 5.99969C6.82023 6.63977 6.5 7.50791 6.5 8.41313C6.5 9.3558 6.84158 10.201 7.39158 10.8251L12 16L16.6084 10.8251Z" fill="#ADFF00" stroke="#ADFF00" stroke-width="0.5"/>
</svg>
