 <svg width="12" height="12" viewBox="0 0 12 12" fill="none" xmlns="http://www.w3.org/2000/svg">
<path fill-rule="evenodd" clip-rule="evenodd" d="M11.834 5.41699C11.834 2.5175 9.48348 0.166992 6.58398 0.166993C3.68448 0.166993 1.33399 2.5175 1.33399 5.41699C1.33399 8.3165 3.68448 10.667 6.58399 10.667C9.48348 10.667 11.834 8.3165 11.834 5.41699ZM6.58398 1.33366C8.83915 1.33366 10.6673 3.16183 10.6673 5.41699C10.6673 7.67217 8.83915 9.50033 6.58399 9.50033C4.32881 9.50033 2.50065 7.67217 2.50065 5.41699C2.50065 3.16183 4.32881 1.33366 6.58398 1.33366Z" fill="white"/>
<path fill-rule="evenodd" clip-rule="evenodd" d="M3.70024 8.30074C3.47243 8.07293 3.10309 8.07293 2.87528 8.30074L0.337782 10.8382C0.109976 11.066 0.109976 11.4354 0.337782 11.6632C0.565588 11.891 0.934934 11.891 1.16274 11.6632L3.70024 9.1257C3.92805 8.89789 3.92805 8.52854 3.70024 8.30074Z" fill="white"/>
</svg>
