<svg width="31" height="31" viewBox="0 0 31 31" fill="none" xmlns="http://www.w3.org/2000/svg">
<g clip-path="url(#clip0_180_502)">
<path opacity="0.5" d="M15.5 31C8.1933 31 0 30.9834 0 30.9834C0 30.9834 0 22.8067 0 15.5C0 8.19329 0 0 0 0C0 0 8.1933 0 15.5 0C22.8067 0 31 0 31 0C31 0 31 8.19329 31 15.5C31 22.8067 31 31 31 31C31 31 22.8067 31 15.5 31Z" fill="white"/>
<path d="M24.2178 10.3333C24.2178 10.5902 24.1157 10.8366 23.934 11.0183C23.7524 11.1999 23.506 11.302 23.249 11.302H7.74902C7.49209 11.302 7.24569 11.1999 7.06401 11.0183C6.88234 10.8366 6.78027 10.5902 6.78027 10.3333C6.78027 10.0763 6.88234 9.82992 7.06401 9.64824C7.24569 9.46657 7.49209 9.3645 7.74902 9.3645H23.249C23.506 9.3645 23.7524 9.46657 23.934 9.64824C24.1157 9.82992 24.2178 10.0763 24.2178 10.3333ZM24.2178 15.4999C24.2178 15.7568 24.1157 16.0033 23.934 16.1849C23.7524 16.3666 23.506 16.4687 23.249 16.4687H7.74902C7.49209 16.4687 7.24569 16.3666 7.06401 16.1849C6.88234 16.0033 6.78027 15.7568 6.78027 15.4999C6.78027 15.243 6.88234 14.9966 7.06401 14.8149C7.24569 14.6332 7.49209 14.5312 7.74902 14.5312H23.249C23.506 14.5312 23.7524 14.6332 23.934 14.8149C24.1157 14.9966 24.2178 15.243 24.2178 15.4999ZM24.2178 20.6666C24.2178 20.9235 24.1157 21.1699 23.934 21.3516C23.7524 21.5333 23.506 21.6353 23.249 21.6353H7.74902C7.49209 21.6353 7.24569 21.5333 7.06401 21.3516C6.88234 21.1699 6.78027 20.9235 6.78027 20.6666C6.78027 20.4097 6.88234 20.1633 7.06401 19.9816C7.24569 19.7999 7.49209 19.6978 7.74902 19.6978H23.249C23.506 19.6978 23.7524 19.7999 23.934 19.9816C24.1157 20.1633 24.2178 20.4097 24.2178 20.6666Z" fill="white"/>
</g>
<defs>
<clipPath id="clip0_180_502">
<rect width="31" height="31" rx="5" fill="white"/>
</clipPath>
</defs>
</svg>
